<?xml version="1.0" encoding="utf-8"?>
<!-- Generator: Adobe Illustrator 25.0.0, SVG Export Plug-In . SVG Version: 6.00 Build 0)  -->
<svg version="1.1" id="Layer_1" xmlns="http://www.w3.org/2000/svg" xmlns:xlink="http://www.w3.org/1999/xlink" x="0px" y="0px"
	 viewBox="0 0 144 144" style="enable-background:new 0 0 144 144;" xml:space="preserve">
<style type="text/css">
	.st0{fill:url(#SVGID_1_);}
</style>
<linearGradient id="SVGID_1_" gradientUnits="userSpaceOnUse" x1="0.5638" y1="72" x2="143.4362" y2="72">
	<stop  offset="0" style="stop-color:#E3A11E"/>
	<stop  offset="1" style="stop-color:#63512B"/>
</linearGradient>
<path class="st0" d="M141.99,86.44c-1-0.38-1.8,0.06-2.54,0.62c-2.55,1.91-4.12,4.47-4.82,7.56c-0.79,3.49-0.36,6.99-0.09,10.49
	c0.24,3.22,0.16,6.41-0.83,9.52c-0.49,1.55-1.15,3-2.37,4.29v-1.45c0.15-1.98,0.28-3.97,0.4-5.95c0.11-1.97-0.02-3.89-0.4-5.78
	V37.67c0-5.83-4.77-10.59-10.59-10.59H87.22c-0.03-0.46-0.09-0.92-0.14-1.37c-0.27-2.38-1.31-4.19-3.8-4.82
	c-0.74-0.18-1.5-0.4-2.25-0.38c-1.36,0.03-2.27-0.49-3.01-1.64c-3.87-5.95-13.63-7.74-19.11-4.47c-1.63,0.97-3.15,1.19-5,0.68
	c-2.06-0.57-4.21-0.45-5.77,1.31c-0.96,1.08-1.87,2.29-2.48,3.59c-1.18,2.48-2.83,4.56-4.86,6.36c-0.29,0.26-0.59,0.51-0.9,0.75
	h-2.13c-5.83,0-10.59,4.77-10.59,10.59v82.97c0,0.05,0.01,0.09,0.01,0.14c-7.1-0.03-13.91,1.51-20.44,4.3
	c-1.94,0.83-3.74,2.03-5.53,3.18c-0.99,0.64-0.85,1.25,0.29,1.62c0.89,0.29,1.83,0.52,2.76,0.61c5.28,0.48,10.56,0.15,15.83-0.27
	c3.85-0.31,7.7-0.7,11.56-0.95c1.73,1.23,3.84,1.97,6.11,1.97h82.97c1.26,0,2.47-0.24,3.59-0.64c1.34-0.17,2.67-0.51,3.98-1.08
	c7.25-3.16,10.9-8.81,11.44-16.61c0.23-3.35-0.42-6.63-0.8-9.93c-0.49-4.32-0.22-8.43,3.08-11.78c0.52-0.53,0.91-1.24,1.21-1.93
	C143.76,88.07,143.19,86.9,141.99,86.44z M124.34,40.65v48.68c-0.48-1.15-0.74-2.35-0.73-3.64c0.03-2.84-0.75-5.44-2.43-7.73
	c-0.92-1.26-1.16-2.57-0.62-3.97c1.21-3.18,0.56-6.14-0.78-9.12c-1.07-2.38-1.94-4.86-2.81-7.33c-0.71-2.01-1.54-3.92-2.98-5.52
	c-0.8-0.88-1.66-0.87-2.23,0.16c-0.45,0.81-0.78,1.73-0.97,2.64c-0.26,1.25-0.37,2.54-0.5,3.81c-0.12,1.09-0.76,1.6-1.74,1.99
	c-1.4,0.57-2.8,1.2-4.08,2c-1.05,0.66-1.96,0.72-2.96,0.06c-0.87-0.57-1.72-1.17-2.61-1.69c-0.76-0.44-1.63-0.98-2.46-0.3
	c-0.82,0.67-0.44,1.63-0.09,2.37c1.01,2.11,2.16,4.16,3.21,6.26c0.38,0.75,0.91,1.55,0.91,2.33c0.02,2.27,0.69,4.3,1.64,6.32
	c0.4,0.84,0.51,1.87,0.53,2.81c0.03,1.55-0.18,3.1-0.19,4.66c-0.01,1.54-0.04,3.04-0.78,4.45c-0.28,0.53-0.41,1.15-0.61,1.72
	c-1.47,4.26-2.92,8.54-4.42,12.79c-2.22,6.27-2.25,12.52,0.26,18.69c0.15,0.37,0.32,0.73,0.49,1.07H86.6
	c-0.07-0.06-0.14-0.12-0.22-0.17c-0.2-0.14-0.42-0.27-0.57-0.46c-0.76-1-1.74-1.2-2.93-0.99c-1.27,0.22-2.56,0.32-3.84,0.47
	c-0.04-0.08-0.09-0.15-0.13-0.23c1.2-1.68,2.32-3.43,3.62-5.03c2.27-2.8,4.67-5.49,6.12-8.86c1.22-2.82,2.22-5.69,2.12-8.82
	c-0.1-3.25-1.88-5.4-4.96-6.06c-2.09-0.45-4.06-0.14-5.93,0.89c-0.29,0.16-0.65,0.19-0.98,0.27c-0.06-0.34-0.2-0.7-0.15-1.02
	c0.9-5.62,1.26-11.29,1.24-16.98c-0.03-6.88-1.03-13.57-3.71-19.94c-1.11-2.65-2.23-5.28-2.68-8.15c-0.27-1.75,0.17-2.36,1.94-2.47
	c0,0.27,0.03,0.55-0.01,0.81c-0.43,2.97-0.1,5.85,1.03,8.63c0.21,0.51,0.55,0.96,0.83,1.43c0.34-0.51,0.85-0.98,0.98-1.54
	c0.62-2.65,2.28-4.48,4.47-5.91c1.86-1.22,3.77-2.37,5.64-3.59c2.14-1.4,2.72-3.45,2.19-5.84c-0.18-0.82-0.57-1.6-0.93-2.37
	c-0.67-1.4-1.3-2.8-1.77-4.24h29.75C121.35,34.01,124.34,37,124.34,40.65z M34.18,117.53v-10.17c0.72,1.54,1.63,2.99,2.63,4.39
	c2.11,2.96,4.29,5.86,6.4,8.82c0.49,0.68,0.81,1.48,1.21,2.22c-0.06,0.08-0.13,0.17-0.19,0.25c-0.74-0.12-1.5-0.2-2.23-0.37
	c-2.17-0.48-4.34-0.9-6.53-1.23C34.66,120.34,34.18,118.99,34.18,117.53z M36.48,35.64c0.13,0.24,0.27,0.49,0.44,0.74
	c0.93,1.36,1.96,2.67,2.78,4.09c1.49,2.58,2.73,5.27,2.11,8.4c-0.06,0.3-0.06,0.61-0.03,0.91c0.05,0.57,0.35,0.67,0.8,0.35
	c0.2-0.14,0.39-0.3,0.55-0.48c2.09-2.44,4.2-4.87,4.96-8.12c0.03-0.14,0.12-0.27,0.18-0.42c1.01,0.48,1.56,1.27,1.62,2.3
	c0.07,1.21,0.04,2.43-0.02,3.65c-0.14,2.89-0.78,5.65-1.93,8.33c-1.1,2.57-2.08,5.22-2.8,7.92c-2.22,8.27-1.93,16.7-1.19,25.13
	c0.14,1.64,0.42,3.27,0.61,4.9c0.15,1.25-0.49,1.73-1.63,1.25c-0.25-0.11-0.51-0.22-0.76-0.31c-3.01-1.11-6.14-0.32-8,1.98V40.65
	C34.18,38.65,35.07,36.86,36.48,35.64z"/>
</svg>
