<?xml version="1.0" encoding="utf-8"?>
<!-- Generator: Adobe Illustrator 25.0.0, SVG Export Plug-In . SVG Version: 6.00 Build 0)  -->
<svg version="1.1" id="Layer_1" xmlns="http://www.w3.org/2000/svg" xmlns:xlink="http://www.w3.org/1999/xlink" x="0px" y="0px"
	 viewBox="0 0 80 50" style="enable-background:new 0 0 80 50;" xml:space="preserve">
<style type="text/css">
	.st0{opacity:0.33;fill:#64522B;}
	.st1{fill:#FFFFFF;}
	.st2{opacity:0.69;fill:#64522B;}
	.st3{fill:none;}
	.st4{opacity:0.4;}
</style>
<g class="st4">
	<path class="st0" d="M19.77,16.23c-0.12,0.33-0.38,0.56-0.63,0.78c-0.02,0.02-0.04,0.03-0.06,0.04c-0.05,0.03-0.08,0.01-0.08-0.05
		c0-0.03,0.01-0.06,0.02-0.1c0.11-0.32,0.01-0.62-0.11-0.91c-0.07-0.16-0.16-0.31-0.24-0.47c-0.01-0.03-0.03-0.06-0.04-0.08
		c-0.16,0.11-0.28,0.29-0.31,0.49l-0.74,5.83c0.23-0.22,0.56-0.26,0.86-0.1c0.03,0.01,0.05,0.03,0.08,0.04
		c0.11,0.07,0.19,0.02,0.19-0.11c0-0.17-0.01-0.35,0-0.52c0.04-0.89,0.12-1.78,0.46-2.62c0.11-0.27,0.25-0.54,0.4-0.79
		c0.16-0.27,0.26-0.55,0.31-0.85c0.02-0.13,0.04-0.25,0.05-0.38c0.01-0.11-0.04-0.2-0.14-0.26C19.78,16.21,19.77,16.22,19.77,16.23z
		"/>
	<path class="st0" d="M17.65,23.44c-0.09-0.16-0.16-0.32-0.22-0.5l-0.14,1.07c-0.02,0.15,0.01,0.3,0.08,0.43
		c0.22,0.06,0.45,0.14,0.67,0.22c0.07,0.03,0.15,0.05,0.23,0.07c0.01-0.01,0.02-0.02,0.02-0.02c-0.03-0.08-0.06-0.17-0.1-0.25
		C18.02,24.11,17.83,23.78,17.65,23.44z"/>
	<path class="st0" d="M29.77,14.71c-0.16-0.22-0.32-0.42-0.49-0.62c1.68-3.14,1.75-4.02,1.49-4.79c-0.28-0.86-4.4-0.02-5.67,1.94
		c-0.66-0.22-1.35-0.38-2.09-0.47c-0.47-0.06-0.92-0.09-1.37-0.09c-0.84-2.16-4.47-3.92-4.96-3.18c-0.41,0.64-0.58,1.45,0.11,4.45
		c-0.46,0.27-0.9,0.58-1.33,0.93c-2.11,1.74-3.35,4.05-3.72,6.94c-0.37,2.88,0.25,5.43,1.87,7.63c1.64,2.25,3.9,3.56,6.78,3.93
		c2.89,0.37,5.41-0.32,7.56-2.07c2.1-1.73,3.34-4.04,3.71-6.95C32.01,19.49,31.39,16.94,29.77,14.71z M29.11,22.51
		c-0.04,0.07-0.09,0.14-0.15,0.19c-0.39,0.31-0.47,0.73-0.48,1.19c0,0.35,0.02,0.7-0.05,1.05c-0.16,0.81-0.62,1.35-1.42,1.59
		c-0.14,0.04-0.29,0.06-0.43,0.06c-0.12,0.03-0.25,0.04-0.39,0.02l-8.7-1.11c-0.24-0.03-0.45-0.14-0.61-0.29
		c-0.41-0.02-0.82-0.04-1.22-0.05c-0.56-0.03-1.12-0.06-1.66-0.18c-0.1-0.02-0.19-0.06-0.28-0.1c-0.11-0.05-0.12-0.12-0.01-0.17
		c0.2-0.1,0.41-0.2,0.62-0.26c0.72-0.21,1.46-0.28,2.2-0.18c0,0,0-0.01,0-0.01l1.11-8.7c0.08-0.61,0.64-1.05,1.25-0.97l0.22,0.03
		c0.04-0.02,0.07-0.04,0.1-0.07c0.24-0.16,0.44-0.36,0.59-0.6c0.08-0.13,0.19-0.24,0.31-0.34c0.19-0.16,0.41-0.15,0.62-0.06
		c0.19,0.08,0.35,0.08,0.53,0c0.62-0.27,1.62,0.05,1.94,0.72c0.06,0.13,0.15,0.2,0.29,0.21c0.08,0.01,0.16,0.04,0.23,0.07
		c0.25,0.1,0.34,0.3,0.33,0.56c0,0.05,0,0.1,0,0.15l3.51,0.45c0.61,0.08,1.05,0.64,0.97,1.25l-0.91,7.14c0.01,0.2,0,0.41-0.04,0.61
		c-0.04,0.21-0.08,0.41-0.12,0.62l-0.02,0.15c0.15-0.12,0.23-0.26,0.31-0.42c0.15-0.31,0.2-0.65,0.21-0.99
		c0.02-0.37,0.02-0.74,0.15-1.1c0.11-0.31,0.31-0.56,0.61-0.73c0.09-0.05,0.18-0.08,0.27-0.03C29.13,22.26,29.18,22.39,29.11,22.51z
		"/>
	<path class="st0" d="M27.17,16.37l-3.12-0.4c0.03,0.16,0.08,0.31,0.13,0.47c0.03,0.09,0.06,0.17,0.07,0.26
		c0.02,0.26-0.06,0.46-0.31,0.58c-0.21,0.1-0.43,0.2-0.64,0.3c-0.25,0.12-0.45,0.29-0.55,0.56c-0.02,0.06-0.08,0.1-0.12,0.15
		c-0.02-0.05-0.05-0.11-0.07-0.16c-0.08-0.31-0.08-0.61,0.01-0.92c0.01-0.03,0.01-0.06,0.01-0.09c-0.19-0.01-0.24,0.05-0.24,0.23
		c0.01,0.31,0.09,0.6,0.17,0.89c0.2,0.7,0.21,1.42,0.12,2.14c-0.07,0.6-0.19,1.19-0.36,1.76c-0.01,0.03,0,0.07,0,0.11
		c0.04,0,0.07,0,0.11-0.02c0.21-0.08,0.42-0.09,0.63-0.01c0.31,0.11,0.47,0.36,0.44,0.7c-0.03,0.33-0.17,0.62-0.34,0.9
		c-0.2,0.33-0.48,0.58-0.76,0.85c-0.16,0.15-0.3,0.32-0.45,0.48c0,0.01,0.01,0.02,0.01,0.03c0.14,0,0.27,0.01,0.41,0
		c0.13-0.01,0.23,0.03,0.29,0.14c0.01,0.02,0.03,0.04,0.05,0.06c0.01,0.01,0.01,0.01,0.02,0.02l1.13,0.14
		c-0.01-0.04-0.03-0.08-0.04-0.12c-0.18-0.68-0.09-1.34,0.22-1.96c0.21-0.43,0.42-0.85,0.63-1.28c0.03-0.06,0.05-0.12,0.09-0.17
		c0.1-0.14,0.12-0.3,0.14-0.46c0.02-0.16,0.06-0.32,0.08-0.49c0.01-0.1,0.01-0.21-0.02-0.3c-0.07-0.22-0.12-0.45-0.09-0.68
		c0.01-0.08-0.04-0.17-0.06-0.26c-0.08-0.23-0.18-0.46-0.25-0.7c-0.03-0.08-0.05-0.19,0.04-0.25c0.1-0.06,0.18,0.01,0.25,0.06
		c0.09,0.07,0.17,0.14,0.25,0.21c0.1,0.08,0.19,0.09,0.31,0.03c0.14-0.07,0.3-0.11,0.45-0.16c0.11-0.03,0.18-0.07,0.21-0.19
		c0.03-0.13,0.06-0.27,0.1-0.39c0.03-0.09,0.08-0.18,0.14-0.26c0.07-0.1,0.16-0.09,0.24,0.01c0.13,0.19,0.19,0.4,0.24,0.62
		c0.06,0.27,0.12,0.54,0.2,0.81c0.1,0.33,0.13,0.65-0.04,0.97c-0.07,0.14-0.07,0.28,0.01,0.42c0.15,0.26,0.19,0.54,0.15,0.84
		c-0.02,0.14-0.01,0.26,0.03,0.39l0.65-5.1C27.82,16.77,27.55,16.42,27.17,16.37z"/>
</g>
<g class="st4">
	<path class="st2" d="M56.27,34.33c0.03,0.01,0.05,0.01,0.08,0.02c0.12,0.03,0.17-0.02,0.14-0.14c-0.04-0.16-0.08-0.31-0.12-0.47
		c-0.17-0.81-0.29-1.62-0.17-2.45c0.04-0.27,0.1-0.54,0.18-0.8c0.08-0.27,0.11-0.55,0.09-0.83c-0.01-0.12-0.02-0.24-0.04-0.35
		c-0.02-0.1-0.08-0.17-0.18-0.21c0,0.02-0.01,0.03-0.01,0.04c-0.04,0.32-0.21,0.58-0.39,0.84c-0.01,0.02-0.03,0.04-0.05,0.05
		c-0.04,0.04-0.07,0.03-0.08-0.02c-0.01-0.03-0.01-0.06-0.01-0.09c0.02-0.31-0.13-0.56-0.3-0.79c-0.1-0.13-0.21-0.24-0.32-0.37
		c-0.02-0.02-0.04-0.04-0.05-0.07c-0.12,0.13-0.19,0.32-0.17,0.51l0.64,5.4C55.67,34.37,55.97,34.25,56.27,34.33z"/>
	<path class="st2" d="M55.95,36.08c-0.11-0.12-0.22-0.26-0.31-0.4l0.12,0.99c0.02,0.14,0.08,0.27,0.17,0.37
		c0.22,0.01,0.43,0.02,0.65,0.04c0.07,0.01,0.15,0.01,0.22,0.01c0.01-0.01,0.01-0.02,0.02-0.03c-0.05-0.07-0.09-0.14-0.14-0.2
		C56.44,36.6,56.19,36.35,55.95,36.08z"/>
	<path class="st2" d="M68.28,31.99c-0.31-2.66-1.45-4.81-3.39-6.45c-0.19-0.16-0.38-0.31-0.58-0.45c0.81-3.2,0.67-4,0.27-4.63
		c-0.45-0.71-3.95,0.97-4.65,3.01c-0.64-0.05-1.3-0.04-1.98,0.04c-0.43,0.05-0.85,0.13-1.25,0.23c-1.23-1.75-4.89-2.52-5.16-1.74
		c-0.23,0.67-0.2,1.43,1.1,3.97c-0.35,0.34-0.68,0.72-0.99,1.13c-1.51,2.03-2.1,4.39-1.79,7.06c0.31,2.67,1.44,4.81,3.38,6.43
		c1.98,1.65,4.3,2.32,6.96,2.01c2.68-0.32,4.79-1.5,6.32-3.55C68,37.03,68.59,34.68,68.28,31.99z M65.77,34.06
		c0.07,0.32,0.18,0.63,0.19,0.96c0.04,0.76-0.25,1.35-0.92,1.74c-0.12,0.07-0.25,0.12-0.37,0.15c-0.1,0.05-0.22,0.09-0.34,0.1
		l-8.05,0.95c-0.22,0.03-0.43-0.02-0.62-0.12c-0.37,0.07-0.74,0.15-1.11,0.22c-0.51,0.1-1.02,0.19-1.53,0.21
		c-0.09,0-0.18-0.01-0.27-0.03c-0.11-0.02-0.14-0.08-0.05-0.15c0.16-0.13,0.32-0.27,0.5-0.37c0.6-0.35,1.24-0.57,1.94-0.65
		c0,0,0-0.01,0-0.01L54.17,29c-0.07-0.57,0.34-1.08,0.91-1.15l0.21-0.02c0.03-0.03,0.05-0.05,0.08-0.08c0.18-0.2,0.31-0.42,0.4-0.67
		c0.05-0.13,0.12-0.26,0.2-0.38c0.13-0.19,0.34-0.22,0.55-0.19c0.19,0.03,0.33-0.01,0.48-0.12c0.49-0.38,1.46-0.32,1.91,0.22
		c0.09,0.1,0.18,0.14,0.31,0.12c0.07-0.01,0.15,0,0.22,0.01c0.25,0.03,0.37,0.2,0.42,0.42c0.01,0.04,0.02,0.09,0.03,0.13l3.25-0.38
		c0.57-0.07,1.08,0.34,1.15,0.91l0.78,6.61c0.06,0.18,0.09,0.36,0.1,0.56c0.01,0.19,0.02,0.39,0.03,0.58l0.02,0.14
		c0.1-0.14,0.15-0.29,0.18-0.44c0.06-0.31,0.03-0.62-0.03-0.93c-0.07-0.34-0.15-0.67-0.11-1.02c0.03-0.31,0.16-0.57,0.38-0.79
		c0.07-0.06,0.14-0.12,0.24-0.09c0.12,0.03,0.19,0.14,0.15,0.26c-0.02,0.07-0.05,0.14-0.1,0.2C65.65,33.24,65.67,33.65,65.77,34.06z
		"/>
	<path class="st2" d="M62.92,27.61l-2.89,0.34c0.06,0.13,0.14,0.26,0.22,0.39c0.04,0.07,0.09,0.14,0.12,0.22
		c0.08,0.23,0.05,0.43-0.15,0.59c-0.17,0.14-0.34,0.27-0.51,0.41c-0.2,0.16-0.34,0.36-0.37,0.62c-0.01,0.06-0.05,0.11-0.08,0.16
		c-0.03-0.04-0.07-0.08-0.1-0.13c-0.14-0.26-0.21-0.53-0.2-0.83c0-0.03-0.01-0.05-0.01-0.08c-0.17,0.03-0.21,0.09-0.16,0.26
		c0.08,0.27,0.21,0.52,0.35,0.76c0.33,0.59,0.51,1.23,0.59,1.89c0.07,0.55,0.1,1.11,0.07,1.66c0,0.03,0.02,0.06,0.03,0.1
		c0.03-0.01,0.07-0.02,0.09-0.04c0.17-0.12,0.36-0.17,0.57-0.15c0.31,0.03,0.5,0.22,0.55,0.53c0.05,0.3-0.02,0.59-0.11,0.88
		c-0.1,0.34-0.3,0.63-0.49,0.93c-0.11,0.17-0.2,0.35-0.29,0.53c0.01,0.01,0.01,0.01,0.02,0.02c0.12-0.03,0.25-0.05,0.37-0.09
		c0.11-0.03,0.21-0.03,0.3,0.06c0.02,0.02,0.04,0.03,0.06,0.04c0.01,0,0.02,0.01,0.02,0.01l1.05-0.12c-0.02-0.03-0.04-0.06-0.06-0.1
		c-0.31-0.57-0.38-1.18-0.24-1.81c0.1-0.43,0.19-0.86,0.28-1.29c0.01-0.06,0.02-0.12,0.04-0.17c0.06-0.15,0.04-0.29,0.03-0.44
		c-0.02-0.15-0.01-0.3-0.03-0.45c-0.01-0.09-0.04-0.19-0.08-0.27c-0.12-0.19-0.2-0.37-0.23-0.59c-0.01-0.08-0.07-0.15-0.12-0.22
		c-0.13-0.19-0.26-0.38-0.38-0.57c-0.04-0.07-0.09-0.16-0.02-0.23c0.07-0.08,0.16-0.03,0.24,0c0.09,0.04,0.18,0.09,0.27,0.13
		c0.11,0.05,0.19,0.04,0.29-0.04c0.11-0.09,0.24-0.17,0.37-0.24c0.09-0.05,0.15-0.11,0.15-0.21c0-0.13-0.01-0.25,0.01-0.38
		c0.01-0.09,0.03-0.18,0.06-0.27c0.04-0.11,0.13-0.12,0.22-0.04c0.16,0.14,0.26,0.31,0.35,0.5c0.11,0.23,0.23,0.46,0.36,0.68
		c0.16,0.27,0.26,0.55,0.18,0.88c-0.04,0.14,0,0.27,0.11,0.38c0.19,0.2,0.29,0.45,0.32,0.72c0.01,0.13,0.05,0.24,0.11,0.34
		l-0.56-4.73C63.6,27.82,63.27,27.57,62.92,27.61z"/>
</g>
</svg>
