<?xml version="1.0" encoding="utf-8"?>
<!-- Generator: Adobe Illustrator 25.0.0, SVG Export Plug-In . SVG Version: 6.00 Build 0)  -->
<svg version="1.1" id="Layer_1" xmlns="http://www.w3.org/2000/svg" xmlns:xlink="http://www.w3.org/1999/xlink" x="0px" y="0px"
	 viewBox="0 0 75 75" style="enable-background:new 0 0 75 75;" xml:space="preserve">
<style type="text/css">
	.st0{fill:url(#SVGID_1_);}
</style>
<linearGradient id="SVGID_1_" gradientUnits="userSpaceOnUse" x1="6.6434" y1="37.5" x2="68.3566" y2="37.5">
	<stop  offset="0" style="stop-color:#E3A11E"/>
	<stop  offset="1" style="stop-color:#63512B"/>
</linearGradient>
<path class="st0" d="M67.73,43.74c-0.43-0.17-0.78,0.03-1.1,0.27c-1.1,0.83-1.78,1.93-2.08,3.27c-0.34,1.51-0.15,3.02-0.04,4.53
	c0.1,1.39,0.07,2.77-0.36,4.11c-0.21,0.67-0.5,1.3-1.02,1.85v-0.63c0.07-0.86,0.12-1.71,0.17-2.57c0.05-0.85-0.01-1.68-0.17-2.49
	v-29.4c0-2.52-2.06-4.58-4.58-4.58H44.08c-0.01-0.2-0.04-0.4-0.06-0.59c-0.12-1.03-0.56-1.81-1.64-2.08
	c-0.32-0.08-0.65-0.17-0.97-0.17c-0.59,0.01-0.98-0.21-1.3-0.71c-1.67-2.57-5.89-3.34-8.25-1.93c-0.71,0.42-1.36,0.52-2.16,0.29
	c-0.89-0.25-1.82-0.19-2.49,0.56c-0.42,0.47-0.81,0.99-1.07,1.55c-0.51,1.07-1.22,1.97-2.1,2.75c-0.13,0.11-0.26,0.22-0.39,0.32
	h-0.92c-2.52,0-4.58,2.06-4.58,4.58v35.84c0,0.02,0,0.04,0,0.06c-3.07-0.01-6.01,0.65-8.83,1.86C8.48,60.78,7.7,61.3,6.93,61.8
	c-0.43,0.28-0.37,0.54,0.13,0.7c0.39,0.13,0.79,0.23,1.19,0.26c2.28,0.21,4.56,0.06,6.84-0.12c1.66-0.13,3.33-0.3,4.99-0.41
	c0.75,0.53,1.66,0.85,2.64,0.85h35.84c0.55,0,1.07-0.1,1.55-0.28c0.58-0.07,1.15-0.22,1.72-0.47c3.13-1.37,4.71-3.81,4.94-7.17
	c0.1-1.45-0.18-2.86-0.35-4.29c-0.21-1.87-0.1-3.64,1.33-5.09c0.23-0.23,0.39-0.53,0.52-0.83C68.5,44.44,68.25,43.94,67.73,43.74z
	 M60.11,23.96v21.03c-0.21-0.49-0.32-1.01-0.32-1.57c0.01-1.23-0.32-2.35-1.05-3.34c-0.4-0.54-0.5-1.11-0.27-1.71
	c0.52-1.38,0.24-2.65-0.34-3.94c-0.46-1.03-0.84-2.1-1.21-3.17c-0.3-0.87-0.67-1.69-1.29-2.38c-0.34-0.38-0.72-0.38-0.96,0.07
	c-0.2,0.35-0.34,0.75-0.42,1.14c-0.11,0.54-0.16,1.1-0.22,1.65c-0.05,0.47-0.33,0.69-0.75,0.86c-0.61,0.24-1.21,0.52-1.76,0.86
	c-0.46,0.28-0.85,0.31-1.28,0.02c-0.37-0.25-0.74-0.5-1.13-0.73c-0.33-0.19-0.7-0.42-1.06-0.13c-0.35,0.29-0.19,0.71-0.04,1.02
	c0.44,0.91,0.93,1.8,1.39,2.7c0.16,0.32,0.39,0.67,0.39,1c0.01,0.98,0.3,1.86,0.71,2.73c0.17,0.36,0.22,0.81,0.23,1.21
	c0.01,0.67-0.08,1.34-0.08,2.01c-0.01,0.66-0.02,1.31-0.34,1.92c-0.12,0.23-0.18,0.5-0.26,0.74c-0.64,1.84-1.26,3.69-1.91,5.53
	c-0.96,2.71-0.97,5.41,0.11,8.08c0.07,0.16,0.14,0.31,0.21,0.46h-4.66c-0.03-0.03-0.06-0.05-0.1-0.07c-0.08-0.06-0.18-0.12-0.24-0.2
	c-0.33-0.43-0.75-0.52-1.27-0.43c-0.55,0.09-1.11,0.14-1.66,0.2c-0.02-0.03-0.04-0.07-0.06-0.1c0.52-0.73,1-1.48,1.56-2.17
	c0.98-1.21,2.02-2.37,2.64-3.83c0.53-1.22,0.96-2.46,0.92-3.81c-0.04-1.41-0.81-2.33-2.14-2.62c-0.9-0.2-1.75-0.06-2.56,0.39
	c-0.13,0.07-0.28,0.08-0.42,0.12c-0.02-0.15-0.09-0.3-0.07-0.44c0.39-2.43,0.55-4.87,0.54-7.33c-0.01-2.97-0.44-5.86-1.6-8.61
	c-0.48-1.14-0.96-2.28-1.16-3.52c-0.12-0.76,0.07-1.02,0.84-1.06c0,0.12,0.01,0.24,0,0.35c-0.19,1.28-0.04,2.53,0.45,3.73
	c0.09,0.22,0.24,0.41,0.36,0.62c0.15-0.22,0.37-0.42,0.42-0.66c0.27-1.14,0.99-1.93,1.93-2.55c0.81-0.53,1.63-1.02,2.44-1.55
	c0.93-0.61,1.17-1.49,0.94-2.52c-0.08-0.35-0.24-0.69-0.4-1.02c-0.29-0.6-0.56-1.21-0.77-1.83h12.85
	C58.82,21.09,60.11,22.38,60.11,23.96z M21.16,57.17v-4.39c0.31,0.66,0.7,1.29,1.14,1.9c0.91,1.28,1.85,2.53,2.77,3.81
	c0.21,0.29,0.35,0.64,0.52,0.96c-0.03,0.04-0.06,0.07-0.08,0.11c-0.32-0.05-0.65-0.09-0.96-0.16c-0.94-0.21-1.87-0.39-2.82-0.53
	C21.37,58.38,21.16,57.8,21.16,57.17z M22.16,21.79c0.06,0.1,0.12,0.21,0.19,0.32c0.4,0.59,0.85,1.15,1.2,1.77
	c0.64,1.12,1.18,2.28,0.91,3.63c-0.03,0.13-0.03,0.26-0.01,0.39c0.02,0.25,0.15,0.29,0.35,0.15c0.09-0.06,0.17-0.13,0.24-0.21
	c0.9-1.05,1.81-2.1,2.14-3.51c0.01-0.06,0.05-0.12,0.08-0.18c0.44,0.21,0.68,0.55,0.7,0.99c0.03,0.52,0.02,1.05-0.01,1.58
	c-0.06,1.25-0.33,2.44-0.83,3.6c-0.48,1.11-0.9,2.26-1.21,3.42c-0.96,3.57-0.83,7.21-0.51,10.85c0.06,0.71,0.18,1.41,0.26,2.12
	c0.06,0.54-0.21,0.75-0.7,0.54c-0.11-0.05-0.22-0.09-0.33-0.13c-1.3-0.48-2.65-0.14-3.45,0.85V23.96
	C21.16,23.1,21.55,22.32,22.16,21.79z"/>
</svg>
