<?xml version="1.0" encoding="utf-8"?>
<!-- Generator: Adobe Illustrator 25.0.0, SVG Export Plug-In . SVG Version: 6.00 Build 0)  -->
<svg version="1.1" id="Layer_1" xmlns="http://www.w3.org/2000/svg" xmlns:xlink="http://www.w3.org/1999/xlink" x="0px" y="0px"
	 viewBox="0 0 80 50" style="enable-background:new 0 0 80 50;" xml:space="preserve">
<style type="text/css">
	.st0{opacity:0.33;fill:#64522B;}
	.st1{fill:#FFFFFF;}
	.st2{opacity:0.69;fill:#64522B;}
</style>
<path class="st0" d="M29.77,14.71c-0.16-0.22-0.32-0.42-0.49-0.62c1.68-3.14,1.75-4.02,1.49-4.79c-0.28-0.86-4.4-0.02-5.67,1.94
	c-0.66-0.22-1.35-0.38-2.09-0.47c-0.47-0.06-0.92-0.09-1.37-0.09c-0.84-2.16-4.47-3.92-4.96-3.18c-0.41,0.64-0.58,1.45,0.11,4.45
	c-0.46,0.27-0.9,0.58-1.33,0.93c-2.11,1.74-3.35,4.05-3.72,6.94c-0.37,2.88,0.25,5.43,1.87,7.63c1.64,2.25,3.9,3.56,6.78,3.93
	c2.89,0.37,5.41-0.32,7.56-2.07c2.1-1.73,3.34-4.04,3.71-6.95C32.01,19.49,31.39,16.94,29.77,14.71z"/>
<path class="st1" d="M29.01,22.19c-0.1-0.05-0.19-0.02-0.27,0.03c-0.29,0.17-0.49,0.41-0.61,0.73c-0.13,0.36-0.13,0.73-0.15,1.1
	c-0.02,0.34-0.07,0.67-0.21,0.99c-0.07,0.16-0.16,0.3-0.31,0.42l0.02-0.15c0.04-0.21,0.08-0.41,0.12-0.62
	c0.04-0.21,0.05-0.41,0.04-0.61l0.91-7.14c0.08-0.61-0.36-1.17-0.97-1.25l-3.51-0.45c0-0.05,0-0.1,0-0.15
	c0-0.25-0.08-0.46-0.33-0.56c-0.07-0.03-0.15-0.06-0.23-0.07c-0.14-0.02-0.23-0.08-0.29-0.21c-0.33-0.68-1.33-0.99-1.94-0.72
	c-0.18,0.08-0.35,0.08-0.53,0c-0.21-0.09-0.43-0.1-0.62,0.06c-0.12,0.1-0.23,0.21-0.31,0.34c-0.16,0.24-0.36,0.44-0.59,0.6
	c-0.03,0.02-0.07,0.05-0.1,0.07l-0.22-0.03c-0.61-0.08-1.17,0.36-1.25,0.97l-1.11,8.7c0,0,0,0.01,0,0.01
	c-0.74-0.1-1.48-0.03-2.2,0.18c-0.21,0.06-0.42,0.16-0.62,0.26c-0.11,0.05-0.11,0.12,0.01,0.17c0.09,0.04,0.18,0.08,0.28,0.1
	c0.55,0.12,1.11,0.16,1.66,0.18c0.41,0.02,0.82,0.03,1.22,0.05c0.17,0.15,0.38,0.26,0.61,0.29l8.7,1.11
	c0.13,0.02,0.26,0.01,0.39-0.02c0.14,0,0.29-0.02,0.43-0.06c0.8-0.23,1.26-0.78,1.42-1.59c0.07-0.35,0.04-0.7,0.05-1.05
	c0.01-0.46,0.09-0.89,0.48-1.19c0.06-0.05,0.11-0.12,0.15-0.19C29.18,22.39,29.13,22.26,29.01,22.19z M27.77,17.16l-0.65,5.1
	c-0.04-0.13-0.05-0.26-0.03-0.39c0.04-0.3-0.01-0.58-0.15-0.84c-0.08-0.14-0.09-0.29-0.01-0.42c0.17-0.32,0.14-0.64,0.04-0.97
	c-0.08-0.26-0.14-0.54-0.2-0.81c-0.05-0.22-0.11-0.43-0.24-0.62c-0.07-0.1-0.16-0.11-0.24-0.01c-0.06,0.08-0.1,0.17-0.14,0.26
	c-0.04,0.13-0.07,0.26-0.1,0.39c-0.03,0.11-0.1,0.16-0.21,0.19c-0.15,0.04-0.31,0.09-0.45,0.16c-0.12,0.05-0.22,0.05-0.31-0.03
	c-0.08-0.07-0.16-0.15-0.25-0.21c-0.07-0.06-0.16-0.12-0.25-0.06c-0.1,0.06-0.07,0.17-0.04,0.25c0.08,0.24,0.17,0.47,0.25,0.7
	c0.03,0.08,0.07,0.17,0.06,0.26c-0.03,0.24,0.01,0.46,0.09,0.68c0.03,0.09,0.03,0.2,0.02,0.3c-0.02,0.16-0.06,0.32-0.08,0.49
	c-0.02,0.16-0.04,0.32-0.14,0.46c-0.04,0.05-0.06,0.11-0.09,0.17c-0.21,0.43-0.42,0.86-0.63,1.28c-0.32,0.63-0.4,1.28-0.22,1.96
	c0.01,0.04,0.02,0.08,0.04,0.12l-1.13-0.14c-0.01-0.01-0.01-0.01-0.02-0.02c-0.02-0.02-0.04-0.03-0.05-0.06
	c-0.07-0.12-0.17-0.15-0.29-0.14c-0.14,0.01-0.27,0-0.41,0c0-0.01-0.01-0.02-0.01-0.03c0.15-0.16,0.29-0.33,0.45-0.48
	c0.28-0.26,0.56-0.51,0.76-0.85c0.17-0.28,0.31-0.57,0.34-0.9c0.03-0.34-0.13-0.59-0.44-0.7c-0.21-0.08-0.42-0.07-0.63,0.01
	c-0.03,0.01-0.07,0.01-0.11,0.02c0-0.04-0.01-0.08,0-0.11c0.17-0.58,0.28-1.17,0.36-1.76c0.09-0.72,0.07-1.44-0.12-2.14
	c-0.08-0.29-0.16-0.58-0.17-0.89c-0.01-0.19,0.05-0.24,0.24-0.23c0,0.03,0,0.06-0.01,0.09c-0.09,0.31-0.09,0.61-0.01,0.92
	c0.01,0.06,0.04,0.11,0.07,0.16c0.04-0.05,0.1-0.09,0.12-0.15c0.1-0.27,0.3-0.44,0.55-0.56c0.21-0.1,0.43-0.2,0.64-0.3
	c0.24-0.12,0.33-0.33,0.31-0.58c-0.01-0.09-0.04-0.18-0.07-0.26c-0.05-0.16-0.1-0.31-0.13-0.47l3.12,0.4
	C27.55,16.42,27.82,16.77,27.77,17.16z M17.29,24.01l0.14-1.07c0.06,0.17,0.13,0.34,0.22,0.5c0.18,0.34,0.37,0.67,0.55,1.01
	c0.04,0.08,0.07,0.17,0.1,0.25c-0.01,0.01-0.02,0.02-0.02,0.02c-0.08-0.02-0.15-0.04-0.23-0.07c-0.22-0.08-0.44-0.15-0.67-0.22
	C17.31,24.31,17.27,24.17,17.29,24.01z M18.63,15.46c0.01,0.03,0.02,0.05,0.04,0.08c0.08,0.16,0.17,0.31,0.24,0.47
	c0.12,0.29,0.22,0.59,0.11,0.91c-0.01,0.03-0.01,0.06-0.02,0.1c0,0.06,0.03,0.08,0.08,0.05c0.02-0.01,0.05-0.03,0.06-0.04
	c0.25-0.23,0.51-0.45,0.63-0.78c0.01-0.01,0.02-0.03,0.02-0.04c0.1,0.06,0.15,0.15,0.14,0.26c-0.01,0.13-0.03,0.26-0.05,0.38
	c-0.05,0.3-0.16,0.58-0.31,0.85c-0.15,0.25-0.29,0.52-0.4,0.79c-0.34,0.84-0.42,1.72-0.46,2.62c-0.01,0.17,0,0.35,0,0.52
	c0,0.13-0.07,0.17-0.19,0.11c-0.03-0.01-0.05-0.03-0.08-0.04c-0.3-0.16-0.64-0.12-0.86,0.1l0.74-5.83
	C18.35,15.74,18.46,15.57,18.63,15.46z"/>
<g>
	<path class="st2" d="M64.88,25.53c-0.19-0.16-0.38-0.31-0.58-0.45c0.81-3.2,0.67-4,0.27-4.63c-0.45-0.71-3.95,0.97-4.65,3.01
		c-0.64-0.05-1.3-0.04-1.98,0.04c-0.43,0.05-0.85,0.13-1.25,0.23c-1.23-1.75-4.89-2.52-5.16-1.74c-0.23,0.67-0.2,1.43,1.1,3.97
		c-0.35,0.34-0.68,0.72-0.99,1.13c-1.51,2.03-2.1,4.39-1.79,7.06c0.31,2.67,1.44,4.81,3.38,6.43c1.98,1.65,4.3,2.32,6.96,2.01
		c2.68-0.32,4.79-1.5,6.32-3.55c1.5-2.02,2.09-4.37,1.78-7.06C67.96,29.32,66.83,27.17,64.88,25.53z"/>
	<path class="st1" d="M65.87,32.42c-0.1-0.03-0.17,0.03-0.24,0.09c-0.23,0.21-0.35,0.48-0.38,0.79c-0.04,0.35,0.05,0.68,0.11,1.02
		c0.06,0.31,0.09,0.62,0.03,0.93c-0.03,0.16-0.08,0.3-0.18,0.44l-0.02-0.14c-0.01-0.19-0.02-0.39-0.03-0.58
		c-0.01-0.19-0.05-0.38-0.1-0.56l-0.78-6.61c-0.07-0.57-0.58-0.97-1.15-0.91l-3.25,0.38c-0.01-0.04-0.02-0.09-0.03-0.13
		c-0.05-0.23-0.17-0.39-0.42-0.42c-0.07-0.01-0.15-0.02-0.22-0.01c-0.13,0.02-0.23-0.02-0.31-0.12c-0.44-0.53-1.41-0.6-1.91-0.22
		c-0.15,0.11-0.29,0.15-0.48,0.12c-0.21-0.03-0.41,0-0.55,0.19c-0.08,0.12-0.16,0.24-0.2,0.38c-0.09,0.25-0.22,0.47-0.4,0.67
		c-0.03,0.03-0.05,0.06-0.08,0.08l-0.21,0.02c-0.57,0.07-0.97,0.58-0.91,1.15l0.95,8.05c0,0,0,0.01,0,0.01
		c-0.69,0.08-1.33,0.31-1.94,0.65c-0.18,0.1-0.34,0.24-0.5,0.37c-0.09,0.07-0.07,0.13,0.05,0.15c0.09,0.02,0.18,0.03,0.27,0.03
		c0.52-0.01,1.03-0.11,1.53-0.21c0.37-0.07,0.74-0.16,1.11-0.22c0.18,0.1,0.4,0.15,0.62,0.12l8.05-0.95
		c0.12-0.01,0.24-0.05,0.34-0.1c0.13-0.03,0.25-0.08,0.37-0.15c0.67-0.39,0.96-0.98,0.92-1.74c-0.02-0.33-0.12-0.64-0.19-0.96
		c-0.1-0.41-0.12-0.82,0.16-1.18c0.04-0.06,0.07-0.13,0.1-0.2C66.07,32.56,66,32.45,65.87,32.42z M63.64,28.18l0.56,4.73
		c-0.06-0.11-0.1-0.22-0.11-0.34c-0.03-0.28-0.13-0.52-0.32-0.72c-0.1-0.11-0.14-0.24-0.11-0.38c0.08-0.32-0.02-0.6-0.18-0.88
		c-0.13-0.22-0.24-0.45-0.36-0.68c-0.09-0.19-0.19-0.36-0.35-0.5c-0.09-0.08-0.17-0.07-0.22,0.04c-0.03,0.08-0.06,0.18-0.06,0.27
		c-0.01,0.12-0.01,0.25-0.01,0.38c0,0.11-0.06,0.16-0.15,0.21c-0.13,0.07-0.26,0.15-0.37,0.24c-0.09,0.08-0.18,0.09-0.29,0.04
		c-0.09-0.05-0.18-0.09-0.27-0.13c-0.08-0.03-0.17-0.08-0.24,0c-0.07,0.07-0.02,0.16,0.02,0.23c0.12,0.19,0.26,0.38,0.38,0.57
		c0.05,0.07,0.11,0.14,0.12,0.22c0.03,0.22,0.12,0.41,0.23,0.59c0.05,0.08,0.07,0.18,0.08,0.27c0.02,0.15,0.02,0.3,0.03,0.45
		c0.02,0.15,0.03,0.3-0.03,0.44c-0.02,0.05-0.03,0.12-0.04,0.17c-0.09,0.43-0.19,0.86-0.28,1.29c-0.14,0.63-0.08,1.24,0.24,1.81
		c0.02,0.03,0.04,0.07,0.06,0.1l-1.05,0.12c-0.01,0-0.02-0.01-0.02-0.01c-0.02-0.01-0.04-0.02-0.06-0.04
		c-0.09-0.09-0.18-0.1-0.3-0.06c-0.12,0.04-0.25,0.06-0.37,0.09c-0.01-0.01-0.01-0.01-0.02-0.02c0.1-0.18,0.19-0.36,0.29-0.53
		c0.19-0.3,0.39-0.59,0.49-0.93c0.09-0.29,0.15-0.58,0.11-0.88c-0.05-0.31-0.24-0.5-0.55-0.53c-0.21-0.02-0.4,0.03-0.57,0.15
		c-0.03,0.02-0.06,0.03-0.09,0.04c-0.01-0.03-0.03-0.07-0.03-0.1c0.02-0.56-0.01-1.11-0.07-1.66c-0.08-0.67-0.26-1.31-0.59-1.89
		c-0.14-0.24-0.28-0.49-0.35-0.76c-0.05-0.17-0.01-0.23,0.16-0.26c0,0.03,0.01,0.05,0.01,0.08c-0.01,0.29,0.06,0.57,0.2,0.83
		c0.03,0.05,0.06,0.09,0.1,0.13c0.03-0.05,0.07-0.1,0.08-0.16c0.03-0.26,0.17-0.46,0.37-0.62c0.17-0.14,0.34-0.27,0.51-0.41
		c0.19-0.16,0.22-0.37,0.15-0.59c-0.03-0.08-0.07-0.15-0.12-0.22c-0.08-0.13-0.16-0.26-0.22-0.39l2.89-0.34
		C63.27,27.57,63.6,27.82,63.64,28.18z M55.76,36.67l-0.12-0.99c0.09,0.14,0.19,0.27,0.31,0.4c0.24,0.26,0.48,0.52,0.72,0.78
		c0.05,0.06,0.1,0.13,0.14,0.2c-0.01,0.01-0.01,0.02-0.02,0.03c-0.07,0-0.15,0-0.22-0.01c-0.22-0.02-0.43-0.04-0.65-0.04
		C55.84,36.94,55.78,36.82,55.76,36.67z M55.05,28.7c0.02,0.02,0.03,0.04,0.05,0.07c0.11,0.12,0.22,0.24,0.32,0.37
		c0.17,0.23,0.32,0.48,0.3,0.79c0,0.03,0,0.06,0.01,0.09c0.01,0.05,0.04,0.06,0.08,0.02c0.02-0.02,0.03-0.03,0.05-0.05
		c0.18-0.26,0.35-0.52,0.39-0.84c0-0.01,0.01-0.03,0.01-0.04c0.1,0.03,0.17,0.1,0.18,0.21c0.02,0.12,0.03,0.24,0.04,0.35
		c0.02,0.28-0.01,0.56-0.09,0.83c-0.08,0.26-0.14,0.53-0.18,0.8c-0.12,0.83,0,1.64,0.17,2.45c0.03,0.16,0.08,0.31,0.12,0.47
		c0.03,0.12-0.03,0.17-0.14,0.14c-0.03-0.01-0.05-0.02-0.08-0.02c-0.31-0.07-0.6,0.04-0.75,0.28l-0.64-5.4
		C54.86,29.02,54.93,28.83,55.05,28.7z"/>
</g>
</svg>
