<?xml version="1.0" encoding="utf-8"?>
<!-- Generator: Adobe Illustrator 25.0.0, SVG Export Plug-In . SVG Version: 6.00 Build 0)  -->
<svg version="1.1" id="Layer_1" xmlns="http://www.w3.org/2000/svg" xmlns:xlink="http://www.w3.org/1999/xlink" x="0px" y="0px"
	 viewBox="0 0 163.52 75" style="enable-background:new 0 0 163.52 75;" xml:space="preserve">
<style type="text/css">
	.st0{fill:url(#SVGID_1_);}
	.st1{fill:#63512B;}
</style>
<g>
	<path class="st1" d="M35,41.42c0,3.92-1.03,7.1-3.09,9.53c-2.2,2.58-5.24,3.86-9.12,3.86c-0.65,0-1.62-0.04-2.93-0.11
		c-1.3-0.07-2.28-0.11-2.93-0.11c-0.7,0-1.05,0.3-1.05,0.9c0,0.75,0.07,1.86,0.22,3.33c0.15,1.47,0.22,2.58,0.22,3.31
		c0,0.37-0.17,0.56-0.51,0.56c-0.99,0-2.47-0.03-4.45-0.09c-1.98-0.06-3.46-0.09-4.45-0.09c-0.47,0-0.7-0.23-0.7-0.7
		c0-1.8,0.03-4.5,0.09-8.11c0.06-3.61,0.09-6.31,0.09-8.11c0-5.09-0.22-10.44-0.66-16.04l-0.02-0.34c-0.03-0.31,0.21-0.49,0.73-0.56
		c1.26-0.16,4.05-0.24,8.36-0.24c2.54,0,4.98,0.03,7.32,0.1c3.84,0.11,6.94,1.32,9.29,3.62C33.8,34.51,35,37.6,35,41.42z
		 M25.3,41.81c0-3.78-1.84-5.66-5.52-5.66c-2.59,0-3.95,0.15-4.08,0.44c-0.11,0.21-0.17,2.08-0.17,5.62c0,0.5,0.02,1.24,0.06,2.22
		c0.04,0.98,0.06,1.72,0.06,2.22c0,0.32,1.46,0.49,4.38,0.49C23.54,47.14,25.3,45.36,25.3,41.81z"/>
	<path class="st1" d="M59.18,49.32c0,1.64-0.53,2.57-1.58,2.8c-0.18,0.03-1.86,0.21-5.03,0.53c-1.91,0.21-4.77,0.46-8.56,0.75
		c0.23,1.05,0.92,1.86,2.07,2.41c0.94,0.45,2.01,0.68,3.21,0.68c1.44,0,2.89-0.39,4.35-1.17c0.62-0.39,1.23-0.78,1.85-1.17
		c0.34,0.16,0.91,0.99,1.71,2.48c0.8,1.49,1.2,2.44,1.2,2.84c0,0.11-0.12,0.3-0.36,0.56c-1.98,2.12-5.05,3.18-9.21,3.18
		c-3.86,0-6.97-1.13-9.33-3.38c-2.43-2.28-3.65-5.34-3.65-9.16c0-3.73,1.09-6.78,3.26-9.16c2.24-2.46,5.2-3.69,8.9-3.69
		c3.11,0,5.75,1.13,7.92,3.4C58.1,43.5,59.18,46.2,59.18,49.32z M50.68,47.84c0-1-0.36-1.89-1.07-2.65
		c-0.71-0.76-1.56-1.14-2.55-1.14c-1.02,0-1.86,0.43-2.53,1.29c-0.62,0.79-0.92,1.73-0.92,2.8c0,0.44,0.23,0.66,0.68,0.66
		c1.2,0,3.06-0.19,5.59-0.56C50.41,48.15,50.68,48.02,50.68,47.84z"/>
	<path class="st1" d="M76.87,55.4c0,0.49-0.06,1.22-0.18,2.21c-0.12,0.99-0.18,1.71-0.18,2.18c0,0.46-0.05,0.76-0.15,0.89
		c-0.1,0.13-0.36,0.32-0.8,0.56c-2.09,1.15-4.41,1.73-6.95,1.73c-4.68,0-7.02-1.79-7.02-5.37c0-1.07,0.04-2.68,0.12-4.82
		c0.08-2.15,0.12-3.76,0.12-4.83c0-0.71-0.41-1.07-1.24-1.07c-0.06,0-0.17,0-0.32,0c-0.15,0.02-0.25,0.02-0.32,0.02
		c-0.62,0-0.92-0.22-0.92-0.66c0-0.26,0.02-0.66,0.06-1.19c0.04-0.53,0.06-0.93,0.06-1.19c0-0.34-0.02-0.86-0.06-1.56
		c-0.04-0.7-0.06-1.22-0.06-1.56c0-0.32,0.52-0.5,1.56-0.53c0.58-0.02,0.9-0.18,0.95-0.49c0.1-0.62,0.13-1.59,0.1-2.92
		c-0.06-2.09-0.1-3.09-0.1-2.99c0-1.88,0.18-2.82,0.53-2.82c0.44,0,1.06,0.1,1.87,0.29c0.92,0.21,1.56,0.33,1.92,0.36
		c0.83,0.11,2.07,0.27,3.74,0.46c0.4,0.03,0.61,0.17,0.61,0.41c0,0.65-0.05,1.63-0.16,2.94s-0.16,2.3-0.16,2.97
		c0,0.79,0.23,1.19,0.7,1.19c0.57,0,1.43-0.02,2.58-0.07c1.15-0.05,2.02-0.07,2.6-0.07c0.36,0,0.53,0.12,0.53,0.36
		c0,0.37-0.04,0.93-0.12,1.68c-0.08,0.75-0.12,1.3-0.12,1.68c0,0.39,0.01,0.96,0.02,1.7c0.02,0.75,0.02,1.31,0.02,1.7
		c0,0.34-0.24,0.51-0.7,0.51c-0.32,0-0.87-0.01-1.63-0.04c-0.76-0.02-1.3-0.04-1.63-0.04h-1.82c-0.24,0-0.36,0.36-0.36,1.07
		c0,0.39,0,0.96,0,1.73c0.02,0.78,0.02,1.35,0.02,1.73c0,1.36,0.15,2.3,0.46,2.82c0.44,0.7,1.3,1.05,2.58,1.05
		c0.4,0,0.98-0.09,1.74-0.28c0.75-0.19,1.28-0.28,1.59-0.28C76.7,54.87,76.87,55.05,76.87,55.4z"/>
	<path class="st1" d="M92.4,42.86c0,0.16-0.12,0.38-0.36,0.66c-0.45-0.11-0.91-0.17-1.36-0.17c-0.96,0-1.76,0.21-2.41,0.63
		c-0.78,0.49-1.17,1.18-1.17,2.07c0,0.57,0.41,1.29,1.24,2.16c1.25,1.31,2.02,2.2,2.31,2.65c0.83,1.23,1.24,2.55,1.24,3.96
		c0,0.83-0.16,1.7-0.49,2.63c-0.37,1.02-0.84,1.77-1.41,2.24c-1.2,1.04-2.6,1.91-4.2,2.63c-1.73,0.75-3.33,1.12-4.79,1.12
		c-0.32,0-1.05-0.88-2.18-2.64c-1.13-1.76-1.69-2.83-1.69-3.22c0-0.15,0.09-0.23,0.27-0.27c1.13-0.21,2.28-0.42,3.43-0.63
		c1.43-0.45,2.14-1.2,2.14-2.24c0-0.71-0.41-1.54-1.24-2.48c-1.47-1.64-2.24-2.5-2.31-2.6c-0.83-1.17-1.24-2.4-1.24-3.69
		c0-2.43,1.23-4.5,3.69-6.2c2.2-1.51,4.56-2.26,7.07-2.26c0.26,0,0.9,0.87,1.92,2.61C91.89,41.55,92.4,42.57,92.4,42.86z"/>
	<path class="st1" d="M154.96,61.82c0,0.44-0.23,0.69-0.68,0.75c-0.45,0.06-1.64,0.1-3.55,0.1c-2.04,0-3.31-0.05-3.79-0.15
		s-0.73-0.43-0.73-1c0-0.76,0.02-1.91,0.07-3.45c0.05-1.54,0.07-2.7,0.07-3.48c0-0.6-0.02-1.49-0.05-2.69
		c-0.03-1.19-0.05-2.09-0.05-2.69c0-2.22-0.96-3.33-2.89-3.33c-0.63,0-1.37,0.28-2.21,0.83c-0.91,0.62-1.36,1.22-1.36,1.82v13.13
		c0,0.53-0.25,0.83-0.75,0.9c-0.57,0.06-1.73,0.1-3.48,0.1c-1.9,0-3.13-0.05-3.69-0.15c-0.5-0.08-0.75-0.35-0.75-0.8
		c0-1.26,0.01-3.17,0.02-5.71c0.02-2.54,0.02-4.46,0.02-5.74c0-4.03-0.32-7.2-0.95-9.5c-0.03-0.15-0.05-0.27-0.05-0.36
		c0-0.26,0.12-0.44,0.36-0.53c1.02-0.11,2.38-0.29,4.08-0.53c2.58-0.5,4.03-0.75,4.35-0.75c0.18,0,0.32,0.55,0.41,1.64
		c0.1,1.09,0.23,1.64,0.41,1.64c-0.18,0,0.69-0.56,2.61-1.69c1.92-1.13,3.6-1.69,5.04-1.69c2.06,0,3.78,0.49,5.15,1.46
		c1.54,1.12,2.31,2.67,2.31,4.67v7.75c0,1.05,0.01,2.63,0.02,4.73C154.95,59.19,154.96,60.77,154.96,61.82z"/>
	<path class="st1" d="M123.7,32.8c-0.32-0.34-0.65-0.65-0.98-0.96c2.2-5.75,2.12-7.27,1.51-8.53c-0.68-1.41-7.54,0.93-9.29,4.57
		c-1.17-0.23-2.4-0.35-3.69-0.35c-0.81,0-1.6,0.05-2.37,0.14c-1.9-3.52-8.52-5.75-9.19-4.36c-0.57,1.19-0.68,2.61,1.16,7.6
		c-0.73,0.56-1.42,1.19-2.08,1.89c-3.24,3.44-4.86,7.67-4.86,12.71c0,5.02,1.62,9.25,4.86,12.66c3.31,3.5,7.46,5.25,12.47,5.25
		c5.04,0,9.2-1.73,12.49-5.2c3.22-3.42,4.84-7.66,4.84-12.71C128.59,40.5,126.96,36.26,123.7,32.8z M117.09,51.56
		c-1.6,1.83-3.55,2.75-5.83,2.75c-2.45,0-4.43-0.87-5.96-2.6c-1.44-1.65-2.16-3.72-2.16-6.2c0-2.32,0.77-4.37,2.31-6.15
		c1.59-1.85,3.52-2.77,5.81-2.77c2.4,0,4.37,0.89,5.91,2.67c1.47,1.7,2.21,3.77,2.21,6.2C119.38,47.78,118.62,49.81,117.09,51.56z"
		/>
</g>
</svg>
