<?xml version="1.0" encoding="utf-8"?>
<!-- Generator: Adobe Illustrator 25.0.0, SVG Export Plug-In . SVG Version: 6.00 Build 0)  -->
<svg version="1.1" id="Layer_1" xmlns="http://www.w3.org/2000/svg" xmlns:xlink="http://www.w3.org/1999/xlink" x="0px" y="0px"
	 viewBox="0 0 120 40" style="enable-background:new 0 0 120 40;" xml:space="preserve">
<style type="text/css">
	.st0{fill:#64522B;}
	.st1{fill:url(#SVGID_1_);}
</style>
<g>
	<g>
		<path class="st0" d="M56.72,21.58c0,1.55-0.41,2.8-1.22,3.75c-0.87,1.02-2.07,1.52-3.59,1.52c-0.26,0-0.64-0.01-1.15-0.04
			c-0.51-0.03-0.9-0.04-1.15-0.04c-0.27,0-0.41,0.12-0.41,0.35c0,0.29,0.03,0.73,0.09,1.31c0.06,0.58,0.09,1.02,0.09,1.3
			c0,0.15-0.07,0.22-0.2,0.22c-0.39,0-0.97-0.01-1.75-0.03c-0.78-0.02-1.36-0.03-1.75-0.03c-0.19,0-0.28-0.09-0.28-0.28
			c0-0.71,0.01-1.77,0.03-3.19s0.03-2.49,0.03-3.19c0-2-0.09-4.11-0.26-6.32l-0.01-0.13c-0.01-0.12,0.08-0.19,0.29-0.22
			c0.5-0.06,1.6-0.1,3.29-0.1c1,0,1.96,0.01,2.88,0.04c1.51,0.04,2.73,0.52,3.66,1.43C56.25,18.86,56.72,20.07,56.72,21.58z
			 M52.9,21.73c0-1.49-0.72-2.23-2.17-2.23c-1.02,0-1.56,0.06-1.61,0.17c-0.04,0.08-0.07,0.82-0.07,2.21c0,0.2,0.01,0.49,0.02,0.88
			c0.02,0.39,0.02,0.68,0.02,0.88c0,0.13,0.57,0.19,1.72,0.19C52.21,23.83,52.9,23.13,52.9,21.73z"/>
		<path class="st0" d="M66.25,24.69c0,0.65-0.21,1.01-0.62,1.1c-0.07,0.01-0.73,0.08-1.98,0.21c-0.75,0.08-1.88,0.18-3.37,0.3
			c0.09,0.42,0.36,0.73,0.81,0.95c0.37,0.18,0.79,0.27,1.26,0.27c0.57,0,1.14-0.15,1.71-0.46c0.24-0.15,0.49-0.31,0.73-0.46
			c0.13,0.06,0.36,0.39,0.68,0.98c0.32,0.59,0.47,0.96,0.47,1.12c0,0.04-0.05,0.12-0.14,0.22c-0.78,0.84-1.99,1.25-3.63,1.25
			c-1.52,0-2.75-0.44-3.68-1.33c-0.96-0.9-1.44-2.1-1.44-3.61c0-1.47,0.43-2.67,1.28-3.61c0.88-0.97,2.05-1.46,3.51-1.46
			c1.23,0,2.27,0.45,3.12,1.34C65.82,22.4,66.25,23.46,66.25,24.69z M62.9,24.11c0-0.4-0.14-0.74-0.42-1.04
			c-0.28-0.3-0.62-0.45-1.01-0.45c-0.4,0-0.73,0.17-1,0.51c-0.24,0.31-0.36,0.68-0.36,1.1c0,0.17,0.09,0.26,0.27,0.26
			c0.47,0,1.21-0.07,2.2-0.22C62.79,24.23,62.9,24.18,62.9,24.11z"/>
		<path class="st0" d="M73.22,27.09c0,0.19-0.02,0.48-0.07,0.87c-0.05,0.39-0.07,0.68-0.07,0.86c0,0.18-0.02,0.3-0.06,0.35
			c-0.04,0.05-0.14,0.12-0.32,0.22c-0.82,0.45-1.74,0.68-2.74,0.68c-1.85,0-2.77-0.71-2.77-2.12c0-0.42,0.02-1.06,0.05-1.9
			c0.03-0.85,0.05-1.48,0.05-1.9c0-0.28-0.16-0.42-0.49-0.42c-0.03,0-0.07,0-0.12,0c-0.06,0.01-0.1,0.01-0.12,0.01
			c-0.24,0-0.36-0.09-0.36-0.26c0-0.1,0.01-0.26,0.02-0.47c0.02-0.21,0.02-0.37,0.02-0.47c0-0.13-0.01-0.34-0.02-0.61
			c-0.02-0.27-0.02-0.48-0.02-0.61c0-0.13,0.2-0.2,0.61-0.21c0.23-0.01,0.35-0.07,0.37-0.19c0.04-0.24,0.05-0.63,0.04-1.15
			c-0.03-0.82-0.04-1.22-0.04-1.18c0-0.74,0.07-1.11,0.21-1.11c0.17,0,0.42,0.04,0.74,0.11c0.36,0.08,0.62,0.13,0.76,0.14
			c0.33,0.04,0.82,0.11,1.47,0.18c0.16,0.01,0.24,0.07,0.24,0.16c0,0.26-0.02,0.64-0.06,1.16s-0.06,0.91-0.06,1.17
			c0,0.31,0.09,0.47,0.28,0.47c0.22,0,0.56-0.01,1.02-0.03c0.45-0.02,0.79-0.03,1.02-0.03c0.14,0,0.21,0.05,0.21,0.14
			c0,0.15-0.02,0.37-0.05,0.66c-0.03,0.29-0.05,0.51-0.05,0.66c0,0.15,0,0.38,0.01,0.67c0.01,0.29,0.01,0.52,0.01,0.67
			c0,0.13-0.09,0.2-0.28,0.2c-0.13,0-0.34,0-0.64-0.01c-0.3-0.01-0.51-0.01-0.64-0.01h-0.72c-0.1,0-0.14,0.14-0.14,0.42
			c0,0.15,0,0.38,0,0.68c0.01,0.31,0.01,0.53,0.01,0.68c0,0.54,0.06,0.91,0.18,1.11c0.17,0.27,0.51,0.41,1.02,0.41
			c0.16,0,0.39-0.04,0.68-0.11c0.3-0.07,0.51-0.11,0.63-0.11C73.15,26.88,73.22,26.95,73.22,27.09z"/>
		<path class="st0" d="M79.34,22.15c0,0.06-0.05,0.15-0.14,0.26c-0.18-0.04-0.36-0.07-0.54-0.07c-0.38,0-0.69,0.08-0.95,0.25
			c-0.31,0.19-0.46,0.46-0.46,0.81c0,0.22,0.16,0.51,0.49,0.85c0.49,0.52,0.8,0.87,0.91,1.04c0.33,0.49,0.49,1.01,0.49,1.56
			c0,0.33-0.06,0.67-0.19,1.03c-0.15,0.4-0.33,0.7-0.56,0.88c-0.47,0.41-1.02,0.75-1.66,1.03c-0.68,0.29-1.31,0.44-1.89,0.44
			c-0.13,0-0.41-0.35-0.86-1.04c-0.44-0.69-0.67-1.12-0.67-1.27c0-0.06,0.04-0.09,0.11-0.11c0.45-0.08,0.9-0.17,1.35-0.25
			c0.56-0.18,0.84-0.47,0.84-0.88c0-0.28-0.16-0.61-0.49-0.98c-0.58-0.64-0.88-0.99-0.91-1.02c-0.33-0.46-0.49-0.94-0.49-1.46
			c0-0.96,0.49-1.77,1.46-2.44c0.87-0.59,1.8-0.89,2.79-0.89c0.1,0,0.35,0.34,0.76,1.03C79.14,21.63,79.34,22.03,79.34,22.15z"/>
		<path class="st0" d="M103.99,29.62c0,0.17-0.09,0.27-0.27,0.3c-0.18,0.03-0.65,0.04-1.4,0.04c-0.8,0-1.3-0.02-1.49-0.06
			s-0.29-0.17-0.29-0.39c0-0.3,0.01-0.75,0.03-1.36c0.02-0.61,0.03-1.06,0.03-1.37c0-0.24-0.01-0.59-0.02-1.06
			c-0.01-0.47-0.02-0.82-0.02-1.06c0-0.87-0.38-1.31-1.14-1.31c-0.25,0-0.54,0.11-0.87,0.33c-0.36,0.24-0.54,0.48-0.54,0.72v5.17
			c0,0.21-0.1,0.33-0.3,0.35c-0.22,0.03-0.68,0.04-1.37,0.04c-0.75,0-1.23-0.02-1.46-0.06c-0.2-0.03-0.3-0.14-0.3-0.32
			c0-0.5,0-1.25,0.01-2.25c0.01-1,0.01-1.76,0.01-2.26c0-1.59-0.12-2.84-0.37-3.74c-0.01-0.06-0.02-0.11-0.02-0.14
			c0-0.1,0.05-0.17,0.14-0.21c0.4-0.04,0.94-0.11,1.61-0.21c1.02-0.2,1.59-0.3,1.71-0.3c0.07,0,0.12,0.22,0.16,0.65
			c0.04,0.43,0.09,0.65,0.16,0.65c-0.07,0,0.27-0.22,1.03-0.67c0.76-0.44,1.42-0.67,1.99-0.67c0.81,0,1.49,0.19,2.03,0.57
			c0.61,0.44,0.91,1.05,0.91,1.84v3.06c0,0.42,0,1.04,0.01,1.86C103.98,28.58,103.99,29.2,103.99,29.62z"/>
		<path class="st0" d="M91.67,18.18c-0.13-0.13-0.25-0.26-0.39-0.38c0.87-2.27,0.83-2.86,0.6-3.36c-0.27-0.56-2.97,0.37-3.66,1.8
			c-0.46-0.09-0.95-0.14-1.45-0.14c-0.32,0-0.63,0.02-0.93,0.06c-0.75-1.39-3.36-2.26-3.62-1.72c-0.22,0.47-0.27,1.03,0.46,3
			c-0.29,0.22-0.56,0.47-0.82,0.74c-1.28,1.35-1.92,3.02-1.92,5.01c0,1.98,0.64,3.64,1.92,4.99c1.3,1.38,2.94,2.07,4.91,2.07
			c1.99,0,3.63-0.68,4.92-2.05c1.27-1.35,1.91-3.02,1.91-5.01C93.6,21.22,92.96,19.55,91.67,18.18z M89.07,25.58
			c-0.63,0.72-1.4,1.08-2.3,1.08c-0.96,0-1.75-0.34-2.35-1.02c-0.57-0.65-0.85-1.47-0.85-2.44c0-0.91,0.3-1.72,0.91-2.42
			c0.63-0.73,1.39-1.09,2.29-1.09c0.94,0,1.72,0.35,2.33,1.05c0.58,0.67,0.87,1.48,0.87,2.44C89.97,24.08,89.67,24.89,89.07,25.58z"
			/>
	</g>
	<linearGradient id="SVGID_1_" gradientUnits="userSpaceOnUse" x1="16.0122" y1="19.9132" x2="40.528" y2="19.9132">
		<stop  offset="0" style="stop-color:#E3A225"/>
		<stop  offset="1" style="stop-color:#64522B"/>
	</linearGradient>
	<path class="st1" d="M40.28,22.39c-0.17-0.07-0.31,0.01-0.44,0.11c-0.44,0.33-0.71,0.77-0.83,1.3c-0.14,0.6-0.06,1.2-0.02,1.8
		c0.04,0.55,0.03,1.1-0.14,1.63c-0.08,0.27-0.2,0.51-0.41,0.74v-0.25c0.03-0.34,0.05-0.68,0.07-1.02c0.02-0.34,0-0.67-0.07-0.99
		V14.02c0-1-0.82-1.82-1.82-1.82h-5.75c-0.01-0.08-0.01-0.16-0.02-0.23c-0.05-0.41-0.22-0.72-0.65-0.83
		c-0.13-0.03-0.26-0.07-0.39-0.07c-0.23,0-0.39-0.08-0.52-0.28c-0.66-1.02-2.34-1.33-3.28-0.77c-0.28,0.17-0.54,0.2-0.86,0.12
		c-0.35-0.1-0.72-0.08-0.99,0.22c-0.17,0.19-0.32,0.39-0.43,0.62c-0.2,0.43-0.49,0.78-0.83,1.09c-0.05,0.04-0.1,0.09-0.15,0.13H22.4
		c-1,0-1.82,0.82-1.82,1.82v14.24c0,0.01,0,0.02,0,0.02c-1.22-0.01-2.39,0.26-3.51,0.74c-0.33,0.14-0.64,0.35-0.95,0.55
		c-0.17,0.11-0.15,0.21,0.05,0.28c0.15,0.05,0.31,0.09,0.47,0.1c0.91,0.08,1.81,0.03,2.72-0.05c0.66-0.05,1.32-0.12,1.98-0.16
		c0.3,0.21,0.66,0.34,1.05,0.34h14.24c0.22,0,0.42-0.04,0.62-0.11c0.23-0.03,0.46-0.09,0.68-0.19c1.24-0.54,1.87-1.51,1.96-2.85
		c0.04-0.58-0.07-1.14-0.14-1.7c-0.08-0.74-0.04-1.45,0.53-2.02c0.09-0.09,0.16-0.21,0.21-0.33C40.58,22.67,40.49,22.47,40.28,22.39
		z M37.25,14.53v8.35c-0.08-0.2-0.13-0.4-0.13-0.62c0-0.49-0.13-0.93-0.42-1.33c-0.16-0.22-0.2-0.44-0.11-0.68
		c0.21-0.55,0.1-1.05-0.13-1.56c-0.18-0.41-0.33-0.83-0.48-1.26c-0.12-0.34-0.26-0.67-0.51-0.95c-0.14-0.15-0.28-0.15-0.38,0.03
		c-0.08,0.14-0.13,0.3-0.17,0.45c-0.05,0.21-0.06,0.44-0.09,0.65c-0.02,0.19-0.13,0.27-0.3,0.34c-0.24,0.1-0.48,0.21-0.7,0.34
		c-0.18,0.11-0.34,0.12-0.51,0.01c-0.15-0.1-0.29-0.2-0.45-0.29c-0.13-0.08-0.28-0.17-0.42-0.05c-0.14,0.12-0.08,0.28-0.02,0.41
		c0.17,0.36,0.37,0.71,0.55,1.07c0.06,0.13,0.16,0.27,0.16,0.4c0,0.39,0.12,0.74,0.28,1.08c0.07,0.14,0.09,0.32,0.09,0.48
		c0,0.27-0.03,0.53-0.03,0.8c0,0.26-0.01,0.52-0.13,0.76c-0.05,0.09-0.07,0.2-0.1,0.3c-0.25,0.73-0.5,1.47-0.76,2.2
		c-0.38,1.08-0.39,2.15,0.04,3.21c0.03,0.06,0.05,0.12,0.08,0.18h-1.85c-0.01-0.01-0.02-0.02-0.04-0.03
		c-0.03-0.02-0.07-0.05-0.1-0.08c-0.13-0.17-0.3-0.21-0.5-0.17c-0.22,0.04-0.44,0.05-0.66,0.08c-0.01-0.01-0.02-0.03-0.02-0.04
		c0.21-0.29,0.4-0.59,0.62-0.86c0.39-0.48,0.8-0.94,1.05-1.52c0.21-0.48,0.38-0.98,0.36-1.51c-0.02-0.56-0.32-0.93-0.85-1.04
		c-0.36-0.08-0.7-0.02-1.02,0.15c-0.05,0.03-0.11,0.03-0.17,0.05c-0.01-0.06-0.04-0.12-0.03-0.18c0.15-0.97,0.22-1.94,0.21-2.91
		c-0.01-1.18-0.18-2.33-0.64-3.42c-0.19-0.45-0.38-0.91-0.46-1.4c-0.05-0.3,0.03-0.4,0.33-0.42c0,0.05,0.01,0.09,0,0.14
		c-0.07,0.51-0.02,1,0.18,1.48c0.04,0.09,0.09,0.16,0.14,0.25c0.06-0.09,0.15-0.17,0.17-0.26c0.11-0.45,0.39-0.77,0.77-1.01
		c0.32-0.21,0.65-0.41,0.97-0.62c0.37-0.24,0.47-0.59,0.37-1c-0.03-0.14-0.1-0.28-0.16-0.41c-0.11-0.24-0.22-0.48-0.3-0.73h5.1
		C36.74,13.39,37.25,13.91,37.25,14.53z M21.78,27.73v-1.75c0.12,0.26,0.28,0.51,0.45,0.75c0.36,0.51,0.74,1.01,1.1,1.51
		c0.08,0.12,0.14,0.25,0.21,0.38c-0.01,0.01-0.02,0.03-0.03,0.04c-0.13-0.02-0.26-0.04-0.38-0.06c-0.37-0.08-0.74-0.15-1.12-0.21
		C21.86,28.21,21.78,27.98,21.78,27.73z M22.18,13.67c0.02,0.04,0.05,0.08,0.08,0.13c0.16,0.23,0.34,0.46,0.48,0.7
		c0.26,0.44,0.47,0.9,0.36,1.44c-0.01,0.05-0.01,0.1-0.01,0.16c0.01,0.1,0.06,0.12,0.14,0.06c0.03-0.02,0.07-0.05,0.09-0.08
		c0.36-0.42,0.72-0.84,0.85-1.39c0.01-0.02,0.02-0.05,0.03-0.07c0.17,0.08,0.27,0.22,0.28,0.4c0.01,0.21,0.01,0.42,0,0.63
		c-0.02,0.5-0.13,0.97-0.33,1.43c-0.19,0.44-0.36,0.9-0.48,1.36c-0.38,1.42-0.33,2.87-0.2,4.31c0.02,0.28,0.07,0.56,0.11,0.84
		c0.03,0.22-0.08,0.3-0.28,0.21c-0.04-0.02-0.09-0.04-0.13-0.05c-0.52-0.19-1.05-0.05-1.37,0.34v-9.54
		C21.78,14.19,21.93,13.88,22.18,13.67z"/>
</g>
</svg>
